<?xml version="1.0" encoding="utf-8"?>
<!-- Generator: Adobe Illustrator 23.0.0, SVG Export Plug-In . SVG Version: 6.00 Build 0)  -->
<svg version="1.1" xmlns="http://www.w3.org/2000/svg" xmlns:xlink="http://www.w3.org/1999/xlink" x="0px" y="0px"
	 viewBox="0 0 500 500" style="enable-background:new 0 0 500 500;" xml:space="preserve">
<style type="text/css">
	.st0{fill:url(#SVGID_1_);}
	.st1{fill:url(#SVGID_2_);}
	.st2{fill:url(#SVGID_3_);}
	.st3{fill:url(#SVGID_4_);}
	.st4{fill:url(#SVGID_5_);}
</style>
<g id="cpu">
	
		<linearGradient id="SVGID_1_" gradientUnits="userSpaceOnUse" x1="356.7615" y1="249.9294" x2="499.4461" y2="249.9294" gradientTransform="matrix(1 -5.269193e-03 5.269193e-03 1 -1.3112 2.1667)">
		<stop  offset="0" style="stop-color:#3059A5"/>
		<stop  offset="1" style="stop-color:#62AADE"/>
	</linearGradient>
	<path class="st0" d="M498.34,95.37c0,0,4.54-94.84-115.29-95.3l0.97,101.74l64.4-0.34c0,0,7-2.22,6.84,9.93
		c-0.16,12.16-5.64,10-5.64,10l-65.5,0.5l0.31,59.41l65.72-0.35c0,0,6.13-0.28,7.06,9.2s-6.73,11.95-6.73,11.95l-65.94,0.35
		L385,370.94c0,0,24.1,1.33,25.36,31.71c1.26,30.38-25.03,30.76-25.03,30.76l-27.25,66.27l27.6-0.15c0,0,114.2,12.28,114.32-90.19
		C500.11,306.88,498.34,95.37,498.34,95.37z"/>
</g>
<g id="monitor">
	<linearGradient id="SVGID_2_" gradientUnits="userSpaceOnUse" x1="142.4266" y1="249.9971" x2="378.7953" y2="249.9971">
		<stop  offset="0" style="stop-color:#3059A5"/>
		<stop  offset="1" style="stop-color:#62AADE"/>
	</linearGradient>
	<path class="st1" d="M142.43,0.47L345.06,0c0,0,32.72,0,33.3,36.59l0.44,371.48c0,0-4.38,37.93-32.86,38.41
		c-28.48,0.49-121.36,0-121.36,0l0.22,30.75l108.57-0.06c9.75-0.36,11.25,22.31,0.3,22.83H167.18l33.81-93.98l113.95-0.93
		c0,0,31.52-2.52,31.96-35.1l-0.02-309.94c-0.16-11.43-7.62-29.32-28.54-29.78l-151.34,1.65L142.43,0.47z"/>
</g>
<g id="movil">
	<linearGradient id="SVGID_3_" gradientUnits="userSpaceOnUse" x1="0" y1="250.0695" x2="193.2134" y2="250.0695">
		<stop  offset="0" style="stop-color:#E6332A"/>
		<stop  offset="0.9944" style="stop-color:#ED6E1F"/>
	</linearGradient>
	<path class="st2" d="M16.1,406.02V31.87c0,0,143.43,0.55,142.94,0s-0.49-0.55-0.49-0.55l-24.81-31H13.8c0,0-13.8-1.28-13.8,15.5
		C0,32.6,0,486.61,0,486.61s0.82,13.22,11.91,13.22s147.13,0,147.13,0l34.17-93.81H16.1z M118.38,475.85
		c-10.12,0-18.32-9.1-18.32-20.33c0-11.23,8.2-20.33,18.32-20.33c10.12,0,18.32,9.1,18.32,20.33
		C136.7,466.75,128.5,475.85,118.38,475.85z"/>
</g>
<g id="destornillador">
</g>
<g id="letras">
	<g>
		<linearGradient id="SVGID_4_" gradientUnits="userSpaceOnUse" x1="24.0761" y1="220.3401" x2="194.5352" y2="220.3401">
			<stop  offset="0" style="stop-color:#3059A5"/>
			<stop  offset="1" style="stop-color:#62AADE"/>
		</linearGradient>
		<path class="st3" d="M86.02,358.65c-25.81,0-43.88-16.75-54.2-50.26c-5.16-16.75-7.74-33.51-7.74-50.26V82.03
			c19.06,0,32.52,12.24,40.38,36.73c3.97,12.5,6,25.39,6.07,38.66v100.71c0,10.44,2.58,17.72,7.74,21.84
			c2.62,2.19,5.2,3.29,7.74,3.29V82.03c19.14,0,32.6,12.24,40.38,36.73c4.05,12.5,6.11,25.39,6.19,38.66v100.71
			c0,10.44,2.58,17.72,7.74,21.84c2.54,2.19,5.12,3.29,7.74,3.29V82.03c19.06,0,32.52,12.24,40.38,36.73
			c3.97,12.63,6,25.52,6.08,38.66v201.23H86.02z"/>
	</g>
	<g>
		<linearGradient id="SVGID_5_" gradientUnits="userSpaceOnUse" x1="198.6219" y1="220.5338" x2="338.5858" y2="220.5338">
			<stop  offset="0" style="stop-color:#E6332A"/>
			<stop  offset="1" style="stop-color:#ED6E1F"/>
		</linearGradient>
		<path class="st4" d="M292.01,182.74c19.45,0,33.03,12.63,40.74,37.89c3.89,12.63,5.84,25.26,5.84,37.89v25.13
			c0,12.63-1.95,25.26-5.84,37.89c-7.7,25.26-21.28,37.89-40.74,37.89h-93.39c0-12.63,1.94-25.26,5.84-37.89
			c7.78-25.26,21.4-37.89,40.86-37.89h38.83c2.14,0,4.01-1.22,5.6-3.67c1.51-2.45,2.26-5.41,2.26-8.89s-0.76-6.44-2.26-8.89
			c-1.59-2.45-3.45-3.67-5.6-3.67h-38.83c-19.46,0-33.08-12.63-40.86-37.89c-3.89-12.63-5.84-25.26-5.84-37.89v-25.32
			c0-12.63,1.94-25.26,5.84-37.89c7.78-25.26,21.4-37.89,40.86-37.89h93.27c0,12.63-1.95,25.26-5.84,37.89
			c-7.7,25.26-21.28,37.89-40.74,37.89h-38.95c-2.14,0-3.97,1.23-5.48,3.67c-1.51,2.45-2.26,5.41-2.26,8.89
			c0,3.48,0.75,6.51,2.26,9.08c1.51,2.45,3.34,3.67,5.48,3.67H292.01z"/>
	</g>
</g>
</svg>
