<?xml version="1.0" encoding="utf-8"?>
<!-- Generator: Adobe Illustrator 23.0.0, SVG Export Plug-In . SVG Version: 6.00 Build 0)  -->
<svg version="1.1" id="Capa_1" xmlns="http://www.w3.org/2000/svg" xmlns:xlink="http://www.w3.org/1999/xlink" x="0px" y="0px"
	 viewBox="0 0 1400 250" style="enable-background:new 0 0 1400 250;" xml:space="preserve">
<style type="text/css">
	.st0{font-family:'ArnStylo';}
	.st1{font-size:345.2671px;}
	.st2{fill:#3059A5;}
	.st3{font-family:'ZaggaPersonalUse-Regular';}
	.st4{fill:#E6332A;}
	.st5{fill:url(#SVGID_1_);}
	.st6{fill:url(#SVGID_2_);}
</style>
<text transform="matrix(0.9084 0 0 1 7.8223 247.3945)"><tspan x="0" y="0" class="st0 st1">W</tspan><tspan x="258.28" y="0" class="st2 st3 st1">illy</tspan><tspan x="817.6" y="0" class="st0 st1">S</tspan><tspan x="1031.2" y="0" class="st4 st3 st1">oft</tspan></text>
<g>
	<linearGradient id="SVGID_1_" gradientUnits="userSpaceOnUse" x1="7.8223" y1="127" x2="226.9712" y2="127">
		<stop  offset="0" style="stop-color:#3059A5"/>
		<stop  offset="0.1503" style="stop-color:#335FA9"/>
		<stop  offset="0.3953" style="stop-color:#3A6FB6"/>
		<stop  offset="0.7026" style="stop-color:#4A8AC9"/>
		<stop  offset="1" style="stop-color:#62AADE"/>
	</linearGradient>
	<path class="st5" d="M87.46,247.62c-33.18,0-56.41-14.61-69.68-43.83c-6.64-14.61-9.95-29.22-9.95-43.83V6.38
		c24.5,0,41.81,10.68,51.92,32.03c5.1,10.9,7.71,22.14,7.81,33.72v87.83c0,9.1,3.32,15.46,9.95,19.05c3.37,1.91,6.69,2.87,9.95,2.87
		V6.38c24.6,0,41.91,10.68,51.92,32.03c5.21,10.9,7.86,22.14,7.96,33.72v87.83c0,9.1,3.32,15.46,9.95,19.05
		c3.27,1.91,6.59,2.87,9.95,2.87V6.38c24.5,0,41.81,10.68,51.92,32.03c5.1,11.02,7.71,22.25,7.81,33.72v175.5H87.46z"/>
</g>
<g>
	<linearGradient id="SVGID_2_" gradientUnits="userSpaceOnUse" x1="707.4961" y1="126.8696" x2="887.4395" y2="126.8696">
		<stop  offset="0" style="stop-color:#E6332A"/>
		<stop  offset="0.2503" style="stop-color:#E73D29"/>
		<stop  offset="0.657" style="stop-color:#EA5626"/>
		<stop  offset="1" style="stop-color:#ED6E1F"/>
	</linearGradient>
	<path class="st6" d="M827.56,93.91c25.01,0,42.47,11.02,52.38,33.04c5,11.02,7.5,22.03,7.5,33.04v21.92
		c0,11.02-2.5,22.03-7.5,33.04c-9.9,22.03-27.36,33.04-52.38,33.04H707.5c0-11.01,2.5-22.03,7.5-33.04
		c10-22.03,27.51-33.04,52.53-33.04h49.92c2.76,0,5.15-1.07,7.2-3.2c1.94-2.13,2.91-4.72,2.91-7.75s-0.97-5.62-2.91-7.75
		c-2.04-2.13-4.44-3.2-7.2-3.2h-49.92c-25.01,0-42.52-11.01-52.53-33.04c-5-11.01-7.5-22.03-7.5-33.04V71.83
		c0-11.01,2.5-22.03,7.5-33.04c10-22.03,27.51-33.04,52.53-33.04h119.91c0,11.02-2.5,22.03-7.5,33.04
		c-9.9,22.03-27.36,33.04-52.38,33.04h-50.08c-2.76,0-5.11,1.07-7.04,3.2c-1.94,2.14-2.91,4.72-2.91,7.75
		c0,3.04,0.97,5.68,2.91,7.92c1.94,2.14,4.29,3.2,7.04,3.2H827.56z"/>
</g>
</svg>
